<svg width="21" height="66" viewBox="0 0 21 66" fill="none" xmlns="http://www.w3.org/2000/svg">
<path d="M7.277 62.0533C5.55077 60.3382 4.73298 58.4426 4.82394 56.2762C4.82394 55.5541 4.82394 54.1099 4.82394 52.0336C4.82394 50.2281 4.82394 48.7838 4.82394 47.7909C4.82394 45.6245 4.64203 43.1873 4.18781 40.3889C3.91522 38.4933 3.09743 37.1392 1.91639 36.417C0.553724 35.6045 -0.0824257 34.1603 0.00853433 31.9939C0.0992043 30.6397 0.553715 29.8275 1.3712 29.4663C2.91579 28.8346 3.82426 27.2998 4.18781 25.1334C4.64203 22.2448 4.82394 19.5367 4.82394 17.0092C4.73298 13.3082 4.82394 10.6001 4.82394 8.88498C5.09624 4.73258 7.3677 2.02452 11.5472 0.85102C13.8183 0.12887 16.2717 -0.0516696 18.7247 0.21914C19.7241 0.30941 20.3599 0.9413 20.5416 1.93425C20.6325 2.3856 20.6325 2.92722 20.6325 3.55908C20.6325 5.09368 20.5416 6.08658 20.1783 6.53798C19.8148 6.98928 18.9063 7.35038 17.3617 7.62118C15.0903 8.07258 13.8183 9.24608 13.5457 11.3222C13.2734 13.2179 13.1825 14.5719 13.1825 15.3843C13.0915 18.634 13.0915 21.7032 13.1825 24.5918C13.1825 27.2998 12.6373 29.4663 11.4562 31.091C10.6385 32.2647 10.6385 33.3478 11.4562 34.5215C12.6373 36.1462 13.1825 38.3126 13.1825 40.9305C13.1825 41.5623 13.1825 44.9925 13.1825 51.131C13.1825 52.5752 13.3641 53.839 13.6367 54.832C14.0909 56.4567 15.0903 57.3593 16.6349 57.7205C16.8166 57.7205 16.9985 57.8109 17.2711 57.8109C17.6343 57.8109 17.816 57.901 17.9979 57.901C19.088 58.1718 19.8148 58.4426 20.0874 58.8038C20.36 59.1647 20.5416 59.8869 20.6325 61.0603C20.7235 62.9561 20.5416 64.1296 20.0874 64.5808C19.6331 65.0321 18.3611 65.303 16.4533 65.303C12.5466 65.3933 9.5484 64.31 7.277 62.0533Z" fill="#F6BF2B"/>
</svg>
