<svg width="25" height="24" viewBox="0 0 25 24" fill="none" xmlns="http://www.w3.org/2000/svg">
<path d="M23.2548 12.8158C22.9822 12.9061 22.6189 12.9965 22.1647 13.177C21.6195 13.3574 21.2559 13.4478 21.0743 13.5382C20.5291 13.7186 20.2565 13.9895 20.0749 14.4408C19.8933 14.8921 19.984 15.2533 20.2565 15.7046C20.3475 15.9754 20.5291 16.2462 20.8017 16.5171C21.1653 16.9683 21.3469 17.1488 21.4379 17.3293C22.0737 18.2321 21.9828 18.8639 21.4379 19.4056C19.8933 20.6694 18.3487 21.7524 16.8041 22.7454C16.4408 23.0162 16.0773 23.1066 15.7137 23.0162C15.3504 22.9261 14.9869 22.7454 14.7146 22.3844C14.5327 22.204 14.351 21.9332 14.1694 21.5719C13.8968 21.1207 13.7149 20.8498 13.6242 20.7594C12.8065 19.586 11.807 19.586 10.8986 20.7594C10.8076 20.9402 10.626 21.1207 10.4444 21.4816C10.2625 21.8428 10.0808 22.0232 9.98994 22.1136C9.53564 22.6553 9.17244 23.0162 8.80884 23.1066C8.44564 23.1969 7.99114 23.1066 7.44624 22.7454C6.17424 21.9332 4.72054 20.8498 3.08504 19.586C2.72174 19.3152 2.53984 19.0444 2.53984 18.5931C2.44914 18.2321 2.53984 17.8709 2.81244 17.4196C2.99404 17.1488 3.26664 16.7876 3.63024 16.3363C3.99344 15.885 4.26604 15.5241 4.35704 15.2533C4.53864 14.9824 4.53864 14.7116 4.44794 14.4408C4.35704 14.1699 4.17534 13.9895 3.90274 13.8087C3.63024 13.6283 3.17594 13.4478 2.72174 13.2673C2.08564 12.9965 1.72234 12.8158 1.44974 12.7257C0.450336 12.2744 0.0867354 11.5523 0.359335 10.5593C0.813635 8.93429 1.35873 7.48999 1.90393 6.13599C2.35823 5.14299 3.17594 4.69169 4.35704 4.96249C4.35704 4.96249 4.44794 4.96249 4.53864 4.96249C4.62964 4.96249 4.62964 4.96249 4.62964 4.96249C5.53804 5.14299 6.17414 5.32359 6.53744 5.32359C6.99164 5.41379 7.35524 5.32359 7.53684 5.23329C7.80944 4.96249 7.99104 4.05979 7.99104 2.25439C7.99104 1.71279 8.08204 1.26149 8.26364 1.08089C8.44564 0.81009 8.80883 0.719891 9.26303 0.629591C11.2619 0.448991 12.9881 0.448991 14.6236 0.629591C15.5321 0.719891 15.9863 1.26149 16.1682 2.16409C16.1682 2.34469 16.2589 2.70579 16.2589 3.15709C16.2589 3.60849 16.3499 3.87929 16.3499 4.15009C16.5315 5.32359 17.1676 5.77489 18.2577 5.50409C18.5303 5.41379 18.8939 5.32359 19.3481 5.14299C19.8023 4.96249 20.1659 4.87219 20.5291 4.87219C21.2559 4.69169 21.8011 4.87219 22.3463 5.50409C22.7096 5.95539 23.0731 6.85809 23.5273 8.30249C23.9816 9.74679 24.2542 10.7398 24.2542 11.3715C24.2542 12.0035 23.9816 12.5452 23.2548 12.8158Z" fill="white"/>
</svg>
