<svg width="23" height="22" viewBox="0 0 23 22" fill="none" xmlns="http://www.w3.org/2000/svg">
<path d="M22.0415 11.9707C21.7801 12.0584 21.4317 12.1462 20.9961 12.3216C20.4732 12.4969 20.1245 12.5847 19.9504 12.6725C19.4275 12.8478 19.1661 13.1109 18.9919 13.5494C18.8178 13.9878 18.9047 14.3388 19.1661 14.7772C19.2533 15.0403 19.4275 15.3034 19.6889 15.5666C20.0376 16.0049 20.2118 16.1803 20.2991 16.3556C20.9088 17.2327 20.8216 17.8465 20.2991 18.3728C18.8178 19.6006 17.3364 20.6527 15.8551 21.6174C15.5067 21.8805 15.1581 21.9684 14.8094 21.8805C14.461 21.793 14.1124 21.6174 13.8512 21.2667C13.6768 21.0915 13.5025 20.8284 13.3284 20.4774C13.0669 20.039 12.8925 19.7758 12.8055 19.688C12.0213 18.548 11.0627 18.548 10.1915 19.688C10.1043 19.8637 9.93011 20.039 9.75595 20.3896C9.5815 20.7406 9.40725 20.9158 9.32008 21.0036C8.88439 21.5299 8.53607 21.8805 8.18736 21.9684C7.83904 22.0561 7.40316 21.9684 6.88058 21.6174C5.6607 20.8284 4.26655 19.7758 2.69805 18.548C2.34964 18.285 2.17519 18.0219 2.17519 17.5834C2.0882 17.2327 2.17519 16.8818 2.43662 16.4433C2.61078 16.1803 2.87221 15.8293 3.22092 15.3909C3.56924 14.9525 3.83067 14.6018 3.91794 14.3388C4.0921 14.0756 4.0921 13.8125 4.00512 13.5494C3.91794 13.2862 3.74369 13.1109 3.48225 12.9353C3.22092 12.76 2.78523 12.5847 2.34964 12.4093C1.7396 12.1462 1.39118 11.9707 1.12975 11.8831C0.17129 11.4447 -0.177414 10.7432 0.0840179 9.77845C0.519706 8.19974 1.04247 6.79658 1.56534 5.48115C2.00103 4.51643 2.78523 4.07799 3.91794 4.34107C3.91794 4.34107 4.00512 4.34107 4.0921 4.34107C4.17937 4.34107 4.17937 4.34107 4.17937 4.34107C5.05056 4.51643 5.6606 4.69189 6.00902 4.69189C6.44461 4.77952 6.79331 4.69189 6.96747 4.60416C7.2289 4.34107 7.40307 3.46409 7.40307 1.71011C7.40307 1.18394 7.49034 0.745493 7.6645 0.570037C7.83904 0.30695 8.18736 0.21932 8.62295 0.131592C10.54 -0.0438639 12.1954 -0.0438639 13.7639 0.131592C14.6352 0.21932 15.0708 0.745493 15.2453 1.62238C15.2453 1.79784 15.3322 2.14865 15.3322 2.5871C15.3322 3.02564 15.4195 3.28873 15.4195 3.55181C15.5937 4.69189 16.2037 5.13033 17.2492 4.86725C17.5106 4.77952 17.8593 4.69189 18.2949 4.51643C18.7305 4.34107 19.0792 4.25335 19.4275 4.25335C20.1245 4.07799 20.6474 4.25335 21.1703 4.86725C21.5187 5.30569 21.8673 6.18268 22.3029 7.58594C22.7386 8.9891 23 9.95382 23 10.5675C23 11.1815 22.7386 11.7078 22.0415 11.9707Z" fill="#F6BF2B"/>
</svg>
